<!DOCTYPE svg PUBLIC "-//W3C//DTD SVG 20010904//EN" "http://www.w3.org/TR/2001/REC-SVG-20010904/DTD/svg10.dtd">
<svg version="1.0" xmlns="http://www.w3.org/2000/svg" width="204px" height="204px" viewBox="0 0 2040 2040" preserveAspectRatio="xMidYMid meet">
<g id="layer101" fill="#40241a" stroke="none">
 <path d="M963 2033 c16 -4 17 -29 17 -333 0 -304 -1 -330 -17 -338 -37 -19 -682 -176 -690 -168 -4 4 -8 120 -8 256 l0 249 -23 -22 c-61 -56 -156 -223 -193 -340 -81 -253 -60 -536 56 -768 70 -140 151 -240 275 -340 263 -214 599 -281 925 -186 274 81 502 270 629 523 119 237 138 534 52 789 -27 77 -102 215 -154 280 l-47 59 -3 -263 -2 -263 -23 6 c-28 8 -264 70 -382 101 -264 69 -288 76 -306 92 -14 12 -16 35 -14 156 1 78 3 224 3 324 l2 182 28 4 c15 2 -11 4 -58 4 -47 1 -77 -1 -67 -4z m17 -893 l0 -149 -37 -10 c-21 -6 -78 -20 -128 -31 -49 -11 -146 -33 -215 -49 -69 -16 -140 -32 -158 -36 l-32 -7 0 145 0 144 83 22 c222 58 463 119 475 120 9 1 12 -35 12 -149z m310 86 c91 -24 167 -45 227 -61 31 -9 59 -18 61 -20 8 -8 14 -272 6 -277 -9 -6 -132 23 -349 82 -66 18 -129 35 -140 38 -42 11 -45 20 -45 147 0 68 2 130 5 137 6 15 34 9 235 -46z m53 -380 l27 -6 0 -131 0 -131 -32 7 c-30 6 -64 15 -235 62 l-53 14 0 123 c0 67 3 125 6 128 3 3 62 -9 132 -27 70 -18 139 -35 155 -39z m-363 -55 c0 -83 -4 -122 -12 -128 -18 -14 -259 -73 -297 -73 -20 0 -21 6 -21 125 l0 125 28 7 c168 42 252 61 275 62 l27 1 0 -119z m-5 -229 c-2 -9 -4 -63 -4 -118 l-1 -101 -27 -7 c-16 -3 -38 -8 -50 -12 -23 -6 -23 -6 -23 120 l0 126 28 1 c15 0 36 4 47 8 25 11 34 6 30 -17z m165 -2 c12 -6 16 -32 18 -124 4 -130 6 -127 -69 -104 l-39 11 0 117 c0 64 3 119 6 122 5 6 53 -7 84 -22z"/>
 </g>
<g id="layer102" fill="#F5F5F6" stroke="none">
 <path d="M897 2027 c3 -5 -8 -8 -23 -6 -16 1 -37 -2 -46 -6 -10 -4 -25 -4 -34 -1 -9 3 -12 2 -8 -5 4 -6 -1 -10 -12 -8 -11 1 -32 -4 -49 -10 -16 -7 -40 -14 -52 -14 -13 -1 -23 -5 -23 -9 0 -5 -3 -7 -7 -6 -8 1 -52 -15 -93 -34 -62 -31 -179 -116 -244 -181 -39 -38 -64 -65 -56 -59 13 9 15 -19 15 -238 0 -137 4 -252 8 -256 8 -8 653 149 690 168 16 8 17 34 17 337 l0 329 -44 3 c-24 2 -42 0 -39 -4z"/>
 <path d="M1058 1847 c0 -100 -2 -246 -3 -324 -2 -121 0 -144 14 -156 18 -16 42 -23 306 -92 118 -31 354 -93 383 -101 l22 -6 0 261 c0 207 3 261 13 255 6 -4 -15 21 -48 55 -33 33 -65 61 -73 61 -7 0 -15 7 -18 15 -8 19 -143 105 -166 105 -13 0 -17 4 -12 13 4 6 4 9 0 5 -10 -8 -66 11 -66 23 0 4 -7 5 -17 2 -10 -4 -14 -2 -10 4 4 6 1 11 -6 10 -36 -1 -57 4 -52 13 3 5 0 7 -8 4 -8 -3 -18 -1 -21 4 -3 6 -14 8 -24 5 -10 -2 -31 1 -47 7 -17 6 -60 13 -97 16 l-68 4 -2 -183z"/>
 <path d="M765 1239 c-104 -27 -227 -59 -272 -70 l-83 -22 0 -144 0 -145 32 7 c18 4 89 20 158 36 69 16 166 38 215 49 50 11 107 25 128 31 l37 10 0 149 c0 114 -3 150 -12 149 -7 -1 -98 -23 -203 -50z"/>
 <path d="M1055 1272 c-3 -7 -5 -69 -5 -137 0 -127 3 -136 45 -147 11 -3 74 -20 140 -38 217 -59 340 -88 349 -82 8 5 2 269 -6 277 -2 2 -30 11 -61 20 -60 16 -136 37 -227 61 -201 55 -229 61 -235 46z"/>
 <path d="M1056 912 c-3 -3 -6 -61 -6 -128 l0 -123 53 -14 c171 -47 205 -56 235 -62 l32 -7 0 131 0 131 -27 6 c-16 4 -85 21 -155 39 -70 18 -129 30 -132 27z"/>
 <path d="M815 881 c-60 -15 -122 -31 -137 -34 l-28 -7 0 -125 c0 -119 1 -125 21 -125 38 0 279 59 297 73 8 6 12 45 12 128 l0 119 -27 -1 c-16 0 -77 -13 -138 -28z"/>
 <path d="M945 579 c-11 -4 -32 -8 -47 -8 l-28 -1 0 -126 c0 -126 0 -126 23 -120 12 4 34 9 50 12 l27 7 1 101 c0 55 2 109 4 118 4 23 -5 28 -30 17z"/>
 <path d="M1056 582 c-3 -3 -6 -58 -6 -122 l0 -117 39 -11 c75 -23 73 -26 69 104 -2 92 -6 118 -18 124 -31 15 -79 28 -84 22z"/>
 </g>

</svg>